<?xml version="1.0" ?><svg viewBox="0 0 50 50" xmlns="http://www.w3.org/2000/svg"><title/><g data-name="레이어 2" id="레이어_2"><g data-name="레이어 1" id="레이어_1-2"><path d="M15,15.43H12.24l7.53,21.28,4.21-12-3.27-9.24H17.8v-2H30.7v2h-3l7.53,21.28L37.91,29C41.46,19.07,35,16,35,13.77a4,4,0,0,1,4-4l.35,0A20.92,20.92,0,0,0,7.59,13.4H15v2Z"/><path d="M4.08,25A20.91,20.91,0,0,0,15.19,43.48L5.75,16.8A20.85,20.85,0,0,0,4.08,25Z"/><path d="M43.2,14.69A14.79,14.79,0,0,1,43,20.42H43l-.32.9h0a19.49,19.49,0,0,1-.69,2l-7.2,20.16A20.93,20.93,0,0,0,43.2,14.69Z"/><path d="M18.55,44.9A21,21,0,0,0,31.17,45L25.05,27.7Z"/><path d="M42.68,7.32A25,25,0,0,0,7.32,42.68,25,25,0,1,0,42.68,7.32ZM25,48.24A23.24,23.24,0,1,1,48.24,25,23.26,23.26,0,0,1,25,48.24Z"/></g></g></svg>